<?xml version="1.0" encoding="iso-8859-1"?>
<!-- Uploaded to: SVG Repo, www.svgrepo.com, Generator: SVG Repo Mixer Tools -->
<svg fill="#000" height="800px" width="800px" version="1.1" id="Layer_1" xmlns="http://www.w3.org/2000/svg" xmlns:xlink="http://www.w3.org/1999/xlink" 
	 viewBox="0 0 512 512" xml:space="preserve">
<g>
	<g>
		<path d="M472.396,139.808c-25.56-25.56-59.489-39.631-95.555-39.631c-0.024,0-0.053,0-0.078,0
			c-33.443,0.018-65.062,12.133-89.88,34.276c-53.212-47.408-135.072-45.631-186.059,5.355c-52.806,52.805-52.804,138.726,0,191.531
			c0.028,0.029,0.057,0.057,0.088,0.087l143.173,138.92c11.518,11.175,26.695,17.329,42.742,17.329c0.016,0,0.033,0,0.048,0
			c16.064-0.013,31.252-6.189,42.764-17.394l142.679-138.862c0.026-0.025,0.052-0.051,0.078-0.077
			C525.201,278.535,525.201,192.614,472.396,139.808z M460.938,319.81L318.303,458.632c-17.621,17.151-45.25,17.173-62.899,0.048
			L112.275,319.806c-46.425-46.472-46.411-122.05,0.042-168.504c46.379-46.38,121.784-46.485,168.385-0.352l21.987,30.548
			c1.587,2.206,4.078,3.38,6.602,3.38c1.645,0,3.304-0.497,4.741-1.532c3.643-2.621,4.47-7.7,1.849-11.343l-18.244-25.347
			c21.848-19.52,49.689-30.206,79.135-30.222c0.023,0,0.046,0,0.068,0c31.722,0,61.575,12.383,84.063,34.871
			c22.509,22.509,34.907,52.439,34.907,84.272C495.809,267.39,483.426,297.304,460.938,319.81z"/>
	</g>
</g>
<g>
	<g>
		<path d="M399.722,238.349c-10.153-10.153-23.616-15.744-37.908-15.744c-14.331,0-27.835,5.613-38.028,15.805l-36.948,36.948
			l-36.949-36.949c-10.191-10.192-23.778-15.804-38.257-15.804c-15.466,0-29.682,6.298-40.029,17.734
			c-9.025,9.974-13.954,22.9-13.882,36.394c0.077,14.114,5.574,27.425,15.476,37.479c0.043,0.044,0.087,0.088,0.131,0.13
			l72.09,69.949c11.067,10.737,25.881,16.744,41.3,16.744h0.046c15.423,0,30.235-6.018,41.288-16.775l21.621-21.043
			c3.215-3.128,3.25-8.283,0.078-11.455c-0.038-0.038-0.077-0.077-0.115-0.115c-3.112-3.112-8.146-3.146-11.301-0.077l-21.587,21.01
			c-16.814,16.363-43.175,16.384-60.013,0.045l-72.02-69.881c-6.874-7.011-10.687-16.277-10.742-26.1
			c-0.051-9.423,3.386-18.444,9.681-25.4c7.225-7.987,17.162-12.385,27.976-12.385c10.137,0,19.642,3.923,26.765,11.044
			l42.696,42.696c3.174,3.174,8.32,3.174,11.492,0l42.695-42.695c7.122-7.122,16.546-11.044,26.535-11.044
			c9.952,0,19.332,3.901,26.415,10.983c14.541,14.541,14.641,38.271,0.241,52.937l-21.879,21.294
			c-3.215,3.128-3.25,8.282-0.078,11.455c0.038,0.038,0.077,0.077,0.115,0.115c3.112,3.112,8.146,3.146,11.301,0.077l21.942-21.355
			c0.04-0.039,0.079-0.078,0.118-0.117C420.693,293.249,420.574,259.201,399.722,238.349z"/>
	</g>
</g>
<g>
	<g>
		<path d="M51.471,24.326C23.09,24.326,0,47.416,0,75.796c0,28.38,23.09,51.471,51.471,51.471s51.471-23.09,51.471-51.471
			C102.941,47.416,79.851,24.326,51.471,24.326z M51.471,111.013c-19.418,0-35.217-15.799-35.217-35.217
			c0-19.418,15.799-35.217,35.217-35.217s35.217,15.799,35.217,35.217C86.687,95.214,70.889,111.013,51.471,111.013z"/>
	</g>
</g>
<g>
	<g>
		<path d="M419.42,151.416c-17.796,0-32.275,14.478-32.275,32.275s14.478,32.275,32.275,32.275s32.275-14.478,32.275-32.275
			S437.216,151.416,419.42,151.416z M419.42,199.711c-8.833,0-16.021-7.186-16.021-16.021c0-8.835,7.186-16.021,16.021-16.021
			s16.021,7.186,16.021,16.021C435.441,192.525,428.254,199.711,419.42,199.711z"/>
	</g>
</g>
</svg>